<svg width="200" height="200" viewBox="0 0 200 200" xmlns="http://www.w3.org/2000/svg">
  <!-- 곰 몸체 -->
  <ellipse cx="100" cy="140" rx="50" ry="35" fill="#8B4513"/>

  <!-- 곰 머리 -->
  <circle cx="100" cy="80" r="40" fill="#8B4513"/>

  <!-- 곰 귀 -->
  <circle cx="75" cy="55" r="15" fill="#8B4513"/>
  <circle cx="125" cy="55" r="15" fill="#8B4513"/>
  <circle cx="75" cy="55" r="8" fill="#CD853F"/>
  <circle cx="125" cy="55" r="8" fill="#CD853F"/>

  <!-- 탐험가 모자 -->
  <ellipse cx="100" cy="40" rx="30" ry="10" fill="#8FBC8F"/>
  <ellipse cx="100" cy="35" rx="28" ry="8" fill="#8FBC8F"/>

  <!-- 곰 눈 -->
  <circle cx="88" cy="75" r="5" fill="#2C3E50"/>
  <circle cx="112" cy="75" r="5" fill="#2C3E50"/>
  <circle cx="89" cy="72" r="2" fill="#FFFFFF"/>
  <circle cx="113" cy="72" r="2" fill="#FFFFFF"/>

  <!-- 곰 코 -->
  <ellipse cx="100" cy="85" rx="5" ry="4" fill="#2C3E50"/>

  <!-- 곰 입 -->
  <path d="M 100 88 Q 92 95 88 90" stroke="#2C3E50" stroke-width="2" fill="none"/>
  <path d="M 100 88 Q 108 95 112 90" stroke="#2C3E50" stroke-width="2" fill="none"/>

  <!-- 배낭 -->
  <rect x="130" y="100" width="25" height="35" fill="#654321"/>
  <rect x="132" y="102" width="21" height="31" fill="#8B4513"/>

  <!-- 배낭 끈 -->
  <line x1="130" y1="105" x2="115" y2="110" stroke="#654321" stroke-width="4"/>
  <line x1="130" y1="125" x2="115" y2="130" stroke="#654321" stroke-width="4"/>

  <!-- 배낭 포켓 -->
  <rect x="135" y="110" width="15" height="10" fill="#654321"/>

  <!-- 곰 팔 -->
  <ellipse cx="65" cy="125" rx="15" ry="25" fill="#8B4513"/>
  <ellipse cx="135" cy="125" rx="15" ry="25" fill="#8B4513"/>

  <!-- 곰 다리 -->
  <ellipse cx="80" cy="175" rx="15" ry="20" fill="#8B4513"/>
  <ellipse cx="120" cy="175" rx="15" ry="20" fill="#8B4513"/>

  <!-- 탐험 부츠 -->
  <ellipse cx="80" cy="190" rx="18" ry="8" fill="#654321"/>
  <ellipse cx="120" cy="190" rx="18" ry="8" fill="#654321"/>

  <!-- 나침반 -->
  <circle cx="60" cy="100" r="8" fill="#FFD700"/>
  <circle cx="60" cy="100" r="5" fill="#FFFFFF"/>
  <line x1="60" y1="95" x2="60" y2="105" stroke="#FF0000" stroke-width="1"/>
  <line x1="55" y1="100" x2="65" y2="100" stroke="#FF0000" stroke-width="1"/>

  <!-- 지도 -->
  <rect x="40" y="125" width="20" height="15" fill="#F5DEB3"/>
  <line x1="42" y1="130" x2="58" y2="130" stroke="#8B4513" stroke-width="1"/>
  <line x1="42" y1="135" x2="55" y2="135" stroke="#8B4513" stroke-width="1"/>
</svg>