<svg width="200" height="200" viewBox="0 0 200 200" xmlns="http://www.w3.org/2000/svg">
  <!-- 원숭이 몸체 -->
  <ellipse cx="100" cy="140" rx="45" ry="35" fill="#D2B48C"/>

  <!-- 원숭이 머리 -->
  <circle cx="100" cy="80" r="40" fill="#D2B48C"/>

  <!-- 원숭이 귀 -->
  <circle cx="70" cy="60" r="15" fill="#D2B48C"/>
  <circle cx="130" cy="60" r="15" fill="#D2B48C"/>
  <circle cx="70" cy="60" r="8" fill="#CD853F"/>
  <circle cx="130" cy="60" r="8" fill="#CD853F"/>

  <!-- 해적 눈가리개 -->
  <ellipse cx="90" cy="75" rx="25" ry="15" fill="#2C3E50"/>
  <line x1="65" y1="75" x2="30" y2="70" stroke="#2C3E50" stroke-width="3"/>

  <!-- 눈 (보이는 쪽) -->
  <circle cx="110" cy="75" r="6" fill="#2C3E50"/>
  <circle cx="112" cy="72" r="2" fill="#FFFFFF"/>

  <!-- 코 -->
  <ellipse cx="100" cy="85" rx="4" ry="3" fill="#8B4513"/>

  <!-- 입 -->
  <path d="M 90 95 Q 100 105 110 95" stroke="#2C3E50" stroke-width="2" fill="none"/>

  <!-- 해적 모자 -->
  <polygon points="70,40 130,40 135,20 65,20" fill="#8B0000"/>
  <polygon points="65,20 75,10 125,10 135,20" fill="#8B0000"/>

  <!-- 해골 마크 -->
  <circle cx="100" cy="30" r="6" fill="#FFFFFF"/>
  <circle cx="97" cy="28" r="1" fill="#2C3E50"/>
  <circle cx="103" cy="28" r="1" fill="#2C3E50"/>
  <line x1="90" y1="35" x2="110" y2="35" stroke="#FFFFFF" stroke-width="2"/>
  <line x1="95" y1="32" x2="105" y2="38" stroke="#FFFFFF" stroke-width="1"/>
  <line x1="105" y1="32" x2="95" y2="38" stroke="#FFFFFF" stroke-width="1"/>

  <!-- 팔 -->
  <ellipse cx="60" cy="120" rx="12" ry="25" fill="#D2B48C"/>
  <ellipse cx="140" cy="120" rx="12" ry="25" fill="#D2B48C"/>

  <!-- 다리 -->
  <ellipse cx="85" cy="175" rx="12" ry="20" fill="#D2B48C"/>
  <ellipse cx="115" cy="175" rx="12" ry="20" fill="#D2B48C"/>

  <!-- 꼬리 -->
  <path d="M 145 140 Q 170 130 160 100 Q 150 80 170 75" stroke="#D2B48C" stroke-width="10" fill="none"/>

  <!-- 후크 -->
  <path d="M 140 145 Q 160 150 155 170" stroke="#C0C0C0" stroke-width="6" fill="none"/>
</svg>